<svg width="25" height="25" viewBox="0 0 25 25" fill="none" xmlns="http://www.w3.org/2000/svg">
<path d="M2.16675 8.87722C2.16675 8.5269 2.16675 8.35174 2.18137 8.20421C2.32235 6.78127 3.44802 5.6556 4.87096 5.51462C5.01849 5.5 5.20311 5.5 5.57233 5.5C5.7146 5.5 5.78574 5.5 5.84613 5.49634C6.61736 5.44963 7.2927 4.96288 7.58089 4.246C7.60346 4.18986 7.62456 4.12657 7.66675 4C7.70894 3.87343 7.73003 3.81014 7.7526 3.754C8.0408 3.03712 8.71614 2.55037 9.48736 2.50366C9.54776 2.5 9.61447 2.5 9.74789 2.5H14.5856C14.719 2.5 14.7857 2.5 14.8461 2.50366C15.6174 2.55037 16.2927 3.03712 16.5809 3.754C16.6035 3.81014 16.6246 3.87343 16.6667 4C16.7089 4.12657 16.73 4.18986 16.7526 4.246C17.0408 4.96288 17.7161 5.44963 18.4874 5.49634C18.5478 5.5 18.6189 5.5 18.7612 5.5C19.1304 5.5 19.315 5.5 19.4625 5.51462C20.8855 5.6556 22.0111 6.78127 22.1521 8.20421C22.1667 8.35174 22.1667 8.5269 22.1667 8.87722V16.7C22.1667 18.3802 22.1667 19.2202 21.8398 19.862C21.5521 20.4265 21.0932 20.8854 20.5287 21.173C19.887 21.5 19.0469 21.5 17.3667 21.5H6.96675C5.28659 21.5 4.44651 21.5 3.80478 21.173C3.24029 20.8854 2.78135 20.4265 2.49373 19.862C2.16675 19.2202 2.16675 18.3802 2.16675 16.7V8.87722Z" stroke="white" stroke-width="2" stroke-linecap="round" stroke-linejoin="round"/>
<path d="M12.1667 17C14.3759 17 16.1667 15.2091 16.1667 13C16.1667 10.7909 14.3759 9 12.1667 9C9.95761 9 8.16675 10.7909 8.16675 13C8.16675 15.2091 9.95761 17 12.1667 17Z" stroke="white" stroke-width="2" stroke-linecap="round" stroke-linejoin="round"/>
</svg>
