<svg width="25" height="25" viewBox="0 0 25 25" fill="none" xmlns="http://www.w3.org/2000/svg">
<path d="M16.7 21.5H7.43137C6.82555 21.5 6.52265 21.5 6.38238 21.3802C6.26068 21.2763 6.19609 21.1203 6.20865 20.9608C6.22312 20.7769 6.43731 20.5627 6.86569 20.1343L15.3686 11.6314C15.7646 11.2354 15.9627 11.0373 16.191 10.9632C16.3918 10.8979 16.6082 10.8979 16.809 10.9632C17.0373 11.0373 17.2354 11.2354 17.6314 11.6314L21.5 15.5V16.7M16.7 21.5C18.3802 21.5 19.2202 21.5 19.862 21.173C20.4265 20.8854 20.8854 20.4265 21.173 19.862C21.5 19.2202 21.5 18.3802 21.5 16.7M16.7 21.5H8.3C6.61984 21.5 5.77976 21.5 5.13803 21.173C4.57354 20.8854 4.1146 20.4265 3.82698 19.862C3.5 19.2202 3.5 18.3802 3.5 16.7V8.3C3.5 6.61984 3.5 5.77976 3.82698 5.13803C4.1146 4.57354 4.57354 4.1146 5.13803 3.82698C5.77976 3.5 6.61984 3.5 8.3 3.5H16.7C18.3802 3.5 19.2202 3.5 19.862 3.82698C20.4265 4.1146 20.8854 4.57354 21.173 5.13803C21.5 5.77976 21.5 6.61984 21.5 8.3V16.7M11 9C11 10.1046 10.1046 11 9 11C7.89543 11 7 10.1046 7 9C7 7.89543 7.89543 7 9 7C10.1046 7 11 7.89543 11 9Z" stroke="white" stroke-width="2" stroke-linecap="round" stroke-linejoin="round"/>
</svg>
